<svg xmlns="http://www.w3.org/2000/svg" width="75" height="100">
<path fill="none" stroke="#666666" d="M74.8,73.7c-0.3,0.8-1.1,1.3-1.9,1.3H59.8l8.7,15.7c0.3,0.5,0.3,1.1,0.2,1.6c-0.2,0.5-0.5,1-1.1,1.2l-12.5,6.2
	c-0.3,0.2-0.6,0.2-0.9,0.2c-0.7,0-1.5-0.4-1.8-1.1l-9.2-16.6l-10.6,8.3c-0.6,0.5-1.5,0.6-2.2,0.2c-0.7-0.4-1.2-1.1-1.2-1.9V31.3
	c0-0.8,0.5-1.6,1.3-1.9c0.8-0.3,1.7-0.1,2.3,0.5l41.7,41.7C75,72,75.2,72.9,74.8,73.7z"/>
<line stroke="#666666" x1="20.9" y1="41.6" x2="9.1" y2="53.3"/>
<line stroke="#666666" x1="16.7" y1="31.2" x2="0" y2="31.2"/>
<line stroke="#666666" x1="20.9" y1="20.9" x2="9.1" y2="9.2"/>
<line stroke="#666666" x1="31.2" y1="16.7" x2="31.2" y2="0"/>
<line stroke="#666666" x1="41.6" y1="20.9" x2="53.3" y2="9.2"/>
<line stroke="#666666" x1="45.8" y1="31.2" x2="62.5" y2="31.2"/>
</svg>
