<svg xmlns="http://www.w3.org/2000/svg" width="20" height="20" viewBox="0 0 20 20">
    <defs>
        <style>.b,.d{fill:none;}.b{stroke:#666;stroke-width:1.5px;}.c{stroke:none;}</style>
    </defs>
    <g transform="translate(-33 -656)">
        <path class="a" stroke="currentColor"
              d="M.768-3.472H-1.04v-.976A2.273,2.273,0,0,1-.888-5.4a3.52,3.52,0,0,1,.664-.824L.944-7.392a1.41,1.41,0,0,0,.368-.992,1.349,1.349,0,0,0-.384-.984A1.328,1.328,0,0,0-.064-9.76a1.442,1.442,0,0,0-1.016.376,1.517,1.517,0,0,0-.472,1H-3.488a3.279,3.279,0,0,1,1.112-2.232A3.545,3.545,0,0,1,0-11.424a3.417,3.417,0,0,1,2.32.776,2.715,2.715,0,0,1,.9,2.168,2.431,2.431,0,0,1-.528,1.6,6.9,6.9,0,0,1-.464.544q-.16.16-.424.408T1.352-5.5q-.184.184-.3.312a1.527,1.527,0,0,0-.288.992ZM-.112.08A1.224,1.224,0,0,1-.976-.264,1.1,1.1,0,0,1-1.344-1.1a1.134,1.134,0,0,1,.36-.84A1.192,1.192,0,0,1-.12-2.288a1.234,1.234,0,0,1,.872.344,1.1,1.1,0,0,1,.368.832,1.134,1.134,0,0,1-.36.84A1.2,1.2,0,0,1-.112.08Z"
              transform="translate(43.488 671.424)"/>
        <g class="b" transform="translate(33 656)">
            <circle class="c" cx="10" cy="10" r="10"/>
            <circle class="d" cx="10" cy="10" r="9.25"/>
        </g>
    </g>
</svg>
