<svg xmlns="http://www.w3.org/2000/svg" width="20" height="20" viewBox="0 0 20 20">
    <g transform="translate(-23.123 -185.951)">
        <path class="a" fill="currentColor"
              d="M0,0H6.718a0,0,0,0,1,0,0V4.008a.815.815,0,0,1-.815.815H.815A.815.815,0,0,1,0,4.008V0A0,0,0,0,1,0,0Z"
              transform="translate(39.713 194.111) rotate(-135)"/>
        <path class="a" fill="currentColor"
              d="M34.311,188.66l-10.4,10.4a.624.624,0,0,0-.174.354l-.61,4.772a.367.367,0,0,0,.409.409l4.772-.61a.625.625,0,0,0,.354-.174l10.4-10.4Zm-6.688,14.18-2.989.382a.123.123,0,0,1-.136-.136l.382-2.989a.123.123,0,0,1,.208-.07l2.6,2.6A.123.123,0,0,1,27.623,202.84Z"
              transform="translate(0 1.353)"/>
    </g>
</svg>
